<svg width="583" height="597" viewBox="0 0 583 597" fill="none" xmlns="http://www.w3.org/2000/svg">
<circle cx="412.5" cy="426.5" r="170.5" fill="#FAF7EE"/>
<path d="M288.878 46.601C283.57 45.08 278.032 48.158 276.515 53.468C274.998 58.778 278.072 64.3129 283.382 65.8309C314.46 74.7139 342.46 93.8258 362.224 119.646C382.626 146.304 393.411 178.187 393.411 211.851C393.411 271.055 358.618 325.263 304.77 349.952C298.651 352.758 293.954 357.738 291.449 363.702H191.701C189.227 357.75 184.589 352.8 178.547 350.041C124.549 325.375 89.6807 271.1 89.7127 211.768C89.7487 144.896 135.028 84.9509 199.824 65.9919C205.125 64.4409 208.164 58.887 206.614 53.586C205.063 48.285 199.507 45.243 194.208 46.797C120.949 68.2329 69.7537 136.067 69.7127 211.757C69.6767 278.666 108.86 339.884 169.594 367.932C159.966 373.455 153.462 383.83 153.462 395.703C153.462 404.294 156.871 412.099 162.4 417.852C156.872 423.606 153.462 431.411 153.462 440C153.462 457.645 167.817 472 185.462 472H192.568C197.214 494.795 217.415 512 241.562 512C265.709 512 285.91 494.795 290.556 472H297.662C315.307 472 329.662 457.645 329.662 440C329.662 431.41 326.253 423.605 320.724 417.852C326.253 412.098 329.662 404.293 329.662 395.703C329.662 383.831 323.158 373.456 313.532 367.933C374.223 339.906 413.412 278.696 413.412 211.852C413.412 173.756 401.203 137.668 378.105 107.491C355.748 78.2819 324.06 56.657 288.878 46.601ZM241.562 492C228.526 492 217.41 483.639 213.282 472H269.842C265.714 483.639 254.598 492 241.562 492ZM297.661 452H185.461C178.844 452 173.461 446.617 173.461 440C173.461 433.384 178.844 428.001 185.461 428.001H297.661C304.278 428.001 309.661 433.384 309.661 440C309.661 446.617 304.279 452 297.661 452ZM297.661 407.702H185.461C178.844 407.702 173.461 402.319 173.461 395.702C173.461 389.085 178.844 383.702 185.461 383.702H297.661C304.278 383.702 309.661 389.085 309.661 395.702C309.661 402.319 304.279 407.702 297.661 407.702Z" fill="#112D2C"/>
<path d="M196.666 133.938V148.936H176.569C156.785 148.936 140.689 165.032 140.689 184.816V272.227C140.689 292.011 156.785 308.107 176.569 308.107H306.809C326.593 308.107 342.689 292.011 342.689 272.227V184.816C342.689 165.032 326.593 148.936 306.809 148.936H286.712V133.938C286.712 120.152 275.496 108.936 261.71 108.936H221.668C207.882 108.936 196.666 120.152 196.666 133.938ZM322.689 272.227C322.689 280.983 315.565 288.107 306.809 288.107H176.569C167.813 288.107 160.689 280.983 160.689 272.227V230.703C164.086 231.99 167.764 232.7 171.606 232.7H190.885V241.011C190.885 246.533 195.362 251.011 200.885 251.011C206.408 251.011 210.885 246.533 210.885 241.011V232.7H272.491V241.011C272.491 246.533 276.969 251.011 282.491 251.011C288.013 251.011 292.491 246.533 292.491 241.011V232.7H311.77C315.613 232.7 319.291 231.99 322.688 230.703L322.689 272.227ZM306.809 168.936C315.565 168.936 322.689 176.06 322.689 184.816V201.782C322.689 207.803 317.792 212.7 311.771 212.7H171.606C165.586 212.7 160.689 207.803 160.689 201.782V184.816C160.689 176.06 167.813 168.936 176.569 168.936H306.809ZM216.666 133.938C216.666 131.18 218.91 128.936 221.668 128.936H261.71C264.468 128.936 266.712 131.18 266.712 133.938V148.936H216.666V133.938Z" fill="#112D2C"/>
<path d="M132.633 41.8692C134.485 45.0772 137.846 46.8712 141.302 46.8712C142.998 46.8712 144.718 46.4382 146.293 45.5292C151.076 42.7672 152.715 36.6522 149.953 31.8692L134.441 5.0022C131.679 0.219197 125.563 -1.4208 120.781 1.3422C115.998 4.1042 114.359 10.2192 117.121 15.0022L132.633 41.8692Z" fill="#112D2C"/>
<path d="M41.023 200.54H10C4.477 200.54 0 205.018 0 210.54C0 216.062 4.477 220.54 10 220.54H41.023C46.546 220.54 51.023 216.062 51.023 210.54C51.023 205.018 46.546 200.54 41.023 200.54Z" fill="#112D2C"/>
<path d="M473.124 200.54H442.1C436.578 200.54 432.1 205.018 432.1 210.54C432.1 216.062 436.578 220.54 442.1 220.54H473.124C478.646 220.54 483.124 216.062 483.124 210.54C483.124 205.018 478.647 200.54 473.124 200.54Z" fill="#112D2C"/>
<path d="M336.831 45.5302C338.406 46.4392 340.125 46.8722 341.821 46.8722C345.277 46.8722 348.639 45.0782 350.491 41.8702L366.003 15.0032C368.765 10.2202 367.126 4.1052 362.343 1.3432C357.558 -1.4188 351.443 0.221196 348.683 5.0032L333.171 31.8692C330.41 36.6532 332.048 42.7682 336.831 45.5302Z" fill="#112D2C"/>
<path d="M241.562 60.003C247.085 60.003 251.562 55.5259 251.562 50.003C251.562 44.4802 247.085 40.003 241.562 40.003C236.039 40.003 231.562 44.4802 231.562 50.003C231.562 55.5259 236.039 60.003 241.562 60.003Z" fill="#112D2C"/>
</svg>
