<svg width="591" height="597" viewBox="0 0 591 597" fill="none" xmlns="http://www.w3.org/2000/svg">
<circle cx="420.5" cy="426.5" r="170.5" fill="#FAF7EE"/>
<path d="M497.307 256C497.307 210.866 483.599 167.874 457.617 131.309C463.973 118.967 467.565 104.978 467.565 90.1655C467.565 40.4479 427.117 0 377.4 0C345.689 0 317.752 16.4566 301.673 41.2749C295.037 40.6649 288.328 40.3469 281.654 40.3469C197.09 40.3469 120.818 89.4475 85.6577 165.945C38.026 168.302 0 207.792 0 255.999C0 304.205 38.026 343.695 85.6577 346.052C101.972 381.526 127.563 411.872 159.947 434.049C161.675 435.232 163.641 435.799 165.588 435.799C168.776 435.799 171.91 434.278 173.848 431.448C176.968 426.891 175.804 420.668 171.247 417.548C158.034 408.499 146.075 397.944 135.558 386.152H172.094C192.444 386.152 210.841 373.898 218.956 355.646C243.003 351.299 260.983 330.327 260.983 305.22C260.983 276.958 237.99 253.966 209.729 253.966H180.306C179.35 210.955 148.127 175.282 107.141 167.441C118.857 144.346 134.79 124.216 153.771 107.836C160.901 126.413 178.916 139.639 199.971 139.639H220.227C214.732 147.683 211.565 157.339 211.565 167.484C211.565 194.765 233.76 216.96 261.041 216.96H363.065C388.36 216.96 409.27 197.875 412.181 173.349C425.108 167.923 436.516 159.571 445.566 149.121C459.531 170.451 469.043 194.002 473.791 218.798H465.438C443.195 218.798 423.613 233.419 416.776 253.967H389.178C360.916 253.967 337.924 276.959 337.924 305.221C337.924 316.727 341.755 327.624 348.5 336.416C312.911 348.487 287.231 382.218 287.231 421.833C287.231 432.171 288.985 442.107 292.203 451.363C278.189 452.1 263.988 451.362 250.257 449.148C244.804 448.266 239.671 451.973 238.792 457.426C237.913 462.879 241.619 468.012 247.071 468.891C258.423 470.722 270.058 471.651 281.652 471.651C288.326 471.651 295.035 471.334 301.672 470.725C317.751 495.543 345.688 511.999 377.398 511.999C427.115 511.999 467.563 471.551 467.563 421.833C467.563 407.02 463.971 393.031 457.614 380.689C483.599 344.126 497.307 301.148 497.307 256ZM48.7927 312.621C54.5015 299.414 66.2482 289.745 80.1668 286.568V294.097C80.1668 299.619 84.6447 304.097 90.1665 304.097C95.6884 304.097 100.166 299.619 100.166 294.097V286.568C114.086 289.745 125.832 299.414 131.54 312.621C119.931 321.127 105.628 326.166 90.1665 326.166C74.704 326.166 60.4023 321.127 48.7927 312.621ZM75.0239 250.292V244.007C75.0239 235.658 81.8168 228.865 90.1665 228.865C98.5163 228.865 105.309 235.658 105.309 244.007V250.292C105.309 258.642 98.5163 265.435 90.1665 265.435C81.8168 265.435 75.0239 258.641 75.0239 250.292ZM209.73 273.967C226.964 273.967 240.984 287.988 240.984 305.222C240.984 321.939 227.917 335.652 211.234 336.438C206.963 336.64 203.295 339.533 202.102 343.637C198.25 356.895 185.911 366.155 172.094 366.155H119.948C115.24 359.25 110.96 352.043 107.156 344.554C142.948 337.7 171.293 309.623 178.531 273.969H209.73V273.967ZM160.334 256C160.334 271.673 155.166 286.161 146.448 297.853C139.798 286.417 129.817 277.324 117.996 271.715C122.576 265.78 125.309 258.351 125.309 250.292V244.007C125.309 224.63 109.544 208.865 90.1665 208.865C70.7891 208.865 55.0245 224.63 55.0245 244.007V250.292C55.0245 258.352 57.7584 265.781 62.3373 271.716C50.5156 277.326 40.5359 286.418 33.8851 297.854C25.1673 286.161 19.9995 271.674 19.9995 256.001C19.9995 217.311 51.4766 185.834 90.1655 185.834C128.856 185.833 160.334 217.309 160.334 256ZM363.066 196.962H261.042C244.789 196.962 231.566 183.739 231.566 167.485C231.566 154.527 240.236 142.907 252.651 139.228C257.415 137.816 260.42 133.122 259.707 128.205C258.994 123.289 254.779 119.642 249.811 119.642H199.973C185.252 119.642 173.017 108.794 170.841 94.6734C202.767 72.754 241.164 60.3473 281.655 60.3473C285.167 60.3473 288.689 60.4543 292.203 60.6413C288.986 69.8961 287.233 79.8298 287.233 90.1655C287.233 139.884 327.681 180.332 377.4 180.332C381.674 180.332 385.878 180.026 389.995 179.448C385.398 189.755 375.061 196.962 363.066 196.962ZM377.4 160.333C361.937 160.333 347.635 155.295 336.026 146.788C341.735 133.579 353.481 123.911 367.4 120.734V128.262C367.4 133.784 371.878 138.262 377.4 138.262C382.922 138.262 387.399 133.784 387.399 128.262V120.734C401.319 123.911 413.066 133.579 418.774 146.788C407.165 155.294 392.862 160.333 377.4 160.333ZM362.257 84.4577V78.1729C362.257 69.8231 369.05 63.0303 377.4 63.0303C385.749 63.0303 392.542 69.8231 392.542 78.1729V84.4577C392.542 92.8075 385.749 99.6003 377.4 99.6003C369.05 99.6003 362.257 92.8075 362.257 84.4577ZM433.681 132.018C427.03 120.583 417.051 111.491 405.229 105.88C409.809 99.9453 412.542 92.5165 412.542 84.4577V78.1729C412.542 58.7954 396.777 43.0308 377.4 43.0308C358.022 43.0308 342.258 58.7954 342.258 78.1729V84.4577C342.258 92.5175 344.992 99.9463 349.57 105.881C337.748 111.492 327.768 120.585 321.117 132.02C312.399 120.328 307.232 105.839 307.232 90.1665C307.232 51.4776 338.709 20.0005 377.399 20.0005C416.088 20.0005 447.565 51.4776 447.565 90.1665C447.566 105.838 442.398 120.326 433.681 132.018ZM389.18 273.967H424.635C429.593 273.967 433.802 270.335 434.528 265.431C436.773 250.247 450.062 238.798 465.44 238.798H476.561C477.052 244.487 477.308 250.223 477.308 256C477.308 294.421 466.369 331.105 445.566 362.877C429.02 343.773 404.597 331.668 377.4 331.668C375.828 331.668 374.266 331.709 372.713 331.789C363.541 326.102 357.925 316.106 357.925 305.222C357.925 287.987 371.947 273.967 389.18 273.967ZM377.4 492.001C361.937 492.001 347.635 486.963 336.026 478.457C341.735 465.249 353.481 455.581 367.4 452.403V459.93C367.4 465.452 371.878 469.93 377.4 469.93C382.922 469.93 387.399 465.452 387.399 459.93V452.403C401.318 455.58 413.065 465.248 418.774 478.456C407.164 486.962 392.862 492.001 377.4 492.001ZM362.257 416.127V409.841C362.257 401.492 369.05 394.699 377.4 394.699C385.749 394.699 392.542 401.492 392.542 409.841V416.127C392.542 424.476 385.749 431.269 377.4 431.269C369.05 431.269 362.257 424.475 362.257 416.127ZM433.68 463.686C427.029 452.252 417.05 443.159 405.228 437.549C409.808 431.614 412.541 424.185 412.541 416.127V409.841C412.541 390.464 396.776 374.7 377.399 374.7C358.021 374.7 342.257 390.464 342.257 409.841V416.127C342.257 424.185 344.991 431.614 349.569 437.549C337.747 443.16 327.767 452.253 321.117 463.687C312.399 451.995 307.232 437.507 307.232 421.833C307.232 383.144 338.709 351.666 377.399 351.666C416.088 351.666 447.565 383.144 447.565 421.833C447.566 437.507 442.398 451.995 433.68 463.686Z" fill="#112D2C"/>
<path d="M205.294 457.007C210.817 457.007 215.294 452.53 215.294 447.007C215.294 441.484 210.817 437.007 205.294 437.007C199.772 437.007 195.294 441.484 195.294 447.007C195.294 452.53 199.772 457.007 205.294 457.007Z" fill="#112D2C"/>
</svg>
