<svg width="504" height="597" viewBox="0 0 504 597" fill="none" xmlns="http://www.w3.org/2000/svg">
<circle cx="333.5" cy="426.5" r="170.5" fill="#FAF7EE"/>
<path d="M315.078 398.481L247.923 378.625C243.232 377.238 239.954 372.851 239.954 367.958V367.826C263.742 354.605 279.983 329.417 280.509 300.45L291.739 257.987C298.216 232.873 294.116 206.989 280.195 185.105C266.275 163.221 244.57 148.537 219.078 143.757C207.745 141.632 196.254 141.632 184.922 143.757C159.43 148.536 137.724 163.221 123.805 185.105C109.885 206.989 105.785 232.873 112.263 257.987L123.204 300.413C123.719 329.513 140.09 354.808 164.045 367.99C164.03 372.87 160.759 377.241 156.076 378.625L88.9226 398.481C73.1757 403.137 59.6578 412.551 49.8308 425.706C40.0028 438.861 34.8079 454.493 34.8079 470.914V502C34.8079 507.523 39.2848 512 44.8078 512H67.7567C73.2797 512 77.7567 507.523 77.7567 502C77.7567 496.477 73.2797 492 67.7567 492H54.8078V470.914C54.8078 446.486 71.1687 424.588 94.5936 417.661L137.42 404.998L153.074 445.734C154.189 448.635 156.59 450.854 159.57 451.736C160.502 452.012 161.458 452.147 162.408 452.147C164.496 452.147 166.558 451.493 168.286 450.237L170.403 448.699V492H157.755C152.232 492 147.755 496.477 147.755 502C147.755 507.523 152.232 512 157.755 512H359.193C364.715 512 369.193 507.523 369.193 502V470.914C369.193 454.494 363.999 438.861 354.171 425.706C344.343 412.552 330.825 403.137 315.078 398.481ZM140.68 195.838C151.596 178.677 168.617 167.161 188.608 163.413C197.494 161.747 206.506 161.747 215.393 163.413C235.383 167.161 252.405 178.677 263.321 195.838C274.175 212.902 277.415 233.067 272.474 252.598C266.712 241.623 259.193 231.555 250.232 222.898C248.366 221.095 245.874 220.09 243.284 220.09C243.212 220.09 243.139 220.091 243.067 220.092C240.4 220.15 237.867 221.271 236.031 223.205C226.402 233.349 214.878 240.806 202.426 245.112C205.922 237.856 208.702 230.195 210.742 222.184C211.985 217.304 209.405 212.262 204.721 210.414C200.036 208.565 194.71 210.49 192.285 214.903C180.116 237.065 156.677 251.2 131.504 252.506C126.603 232.964 129.854 212.858 140.68 195.838ZM143.167 299.005V271.38C153.525 269.78 163.378 266.471 172.395 261.661C172.59 262.444 172.881 263.21 173.27 263.943C175.103 267.389 178.77 269.457 182.672 269.231C204.687 267.969 225.726 259.195 242.896 244.287C250.65 253.437 256.67 263.992 260.546 275.295V299.006C260.546 331.366 234.218 357.694 201.857 357.694C169.496 357.694 143.167 331.366 143.167 299.005ZM222.091 379.148L202 399.239L181.909 379.149C182.383 377.934 182.803 376.696 183.122 375.421C189.13 376.894 195.4 377.692 201.856 377.692C208.41 377.692 214.774 376.874 220.865 375.357C221.187 376.654 221.609 377.914 222.091 379.148ZM167.07 426.398L156.659 399.308L161.746 397.804C164.345 397.035 166.781 395.927 169.03 394.554L186.608 412.131L167.07 426.398ZM213.597 492H190.404V434.167L202 425.742L213.597 434.168V492ZM234.97 394.555C237.218 395.927 239.654 397.036 242.253 397.804L247.341 399.308L236.93 426.398L217.392 412.132L234.97 394.555ZM233.597 492V448.699L235.713 450.237C237.442 451.492 239.503 452.147 241.592 452.147C242.541 452.147 243.497 452.012 244.429 451.736C247.409 450.854 249.811 448.636 250.925 445.735L266.58 404.998L309.408 417.661C332.834 424.588 349.194 446.487 349.194 470.914V492H233.597Z" fill="#112D2C"/>
<path d="M112.756 512C118.278 512 122.756 507.523 122.756 502C122.756 496.477 118.278 492 112.756 492C107.233 492 102.756 496.477 102.756 502C102.756 507.523 107.233 512 112.756 512Z" fill="#112D2C"/>
<path d="M163.918 79.864L158.353 112.31C157.709 116.061 159.251 119.853 162.331 122.091C164.073 123.357 166.136 124.001 168.21 124.001C169.801 124.001 171.399 123.622 172.862 122.852L202 107.533L231.139 122.852C234.507 124.622 238.59 124.328 241.67 122.091C244.749 119.853 246.292 116.062 245.649 112.31L240.084 79.864L263.657 56.885C266.383 54.228 267.363 50.254 266.187 46.634C265.01 43.014 261.881 40.376 258.114 39.828L225.537 35.094L210.968 5.574C209.283 2.161 205.807 0 202 0C198.194 0 194.717 2.161 193.033 5.574L178.464 35.095L145.886 39.829C142.119 40.376 138.99 43.015 137.813 46.635C136.636 50.255 137.618 54.229 140.344 56.886L163.918 79.864ZM186.542 54.131C189.799 53.658 192.615 51.612 194.071 48.661L202 32.596L209.928 48.661C211.385 51.612 214.2 53.658 217.458 54.131L235.187 56.707L222.358 69.212C220.002 71.509 218.926 74.819 219.482 78.063L222.511 95.72L206.654 87.384C203.741 85.853 200.261 85.853 197.347 87.384L181.49 95.72L184.518 78.063C185.075 74.819 183.999 71.509 181.642 69.211L168.813 56.707L186.542 54.131Z" fill="#112D2C"/>
<path d="M403.51 89.056C402.333 85.436 399.204 82.798 395.437 82.25L362.861 77.516L348.293 47.996C346.608 44.583 343.132 42.422 339.325 42.422C335.519 42.422 332.042 44.583 330.358 47.996L315.788 77.516L283.21 82.25C279.442 82.797 276.314 85.436 275.137 89.056C273.961 92.676 274.942 96.65 277.667 99.307L301.241 122.285L295.676 154.731C295.032 158.482 296.575 162.274 299.655 164.512C301.397 165.778 303.461 166.422 305.534 166.422C307.126 166.422 308.723 166.043 310.186 165.273L339.325 149.954L368.463 165.273C371.83 167.044 375.913 166.75 378.993 164.512C382.072 162.275 383.615 158.483 382.972 154.731L377.408 122.285L400.981 99.306C403.705 96.65 404.686 92.676 403.51 89.056ZM359.682 111.633C357.326 113.93 356.25 117.24 356.806 120.484L359.834 138.141L343.978 129.805C342.521 129.039 340.923 128.656 339.325 128.656C337.727 128.656 336.128 129.039 334.672 129.805L318.815 138.141L321.844 120.484C322.4 117.24 321.324 113.93 318.968 111.632L306.139 99.128L323.867 96.552C327.125 96.079 329.94 94.033 331.397 91.082L339.326 75.017L347.254 91.082C348.711 94.033 351.526 96.079 354.784 96.552L372.513 99.128L359.682 111.633Z" fill="#112D2C"/>
<path d="M64.6767 149.954L93.8146 165.273C97.1836 167.044 101.266 166.75 104.346 164.512C107.426 162.275 108.968 158.483 108.324 154.731L102.759 122.285L126.331 99.306C129.057 96.649 130.038 92.675 128.862 89.055C127.686 85.435 124.557 82.797 120.79 82.249L88.2116 77.515L73.6427 47.995C71.9577 44.582 68.4817 42.421 64.6757 42.421C60.8698 42.421 57.3928 44.582 55.7088 47.995L41.1408 77.516L8.56296 82.25C4.79598 82.797 1.66699 85.436 0.489991 89.056C-0.687004 92.676 0.294994 96.65 3.02098 99.307L26.5939 122.286L21.0289 154.732C20.3849 158.483 21.9269 162.275 25.0069 164.513C26.7499 165.779 28.8119 166.423 30.8859 166.423C32.4769 166.423 34.0749 166.044 35.5379 165.274L64.6767 149.954ZM49.2188 96.552C52.4758 96.079 55.2918 94.033 56.7478 91.082L64.6767 75.017L72.6047 91.082C74.0617 94.033 76.8767 96.079 80.1337 96.552L97.8626 99.128L85.0347 111.633C82.6777 113.93 81.6017 117.24 82.1587 120.484L85.1867 138.141L69.3297 129.805C66.4167 128.273 62.9368 128.273 60.0228 129.805L44.1658 138.141L47.1938 120.484C47.7508 117.24 46.6748 113.93 44.3178 111.633L31.4909 99.128L49.2188 96.552Z" fill="#112D2C"/>
</svg>
