<svg width="591" height="512" viewBox="0 0 591 512" fill="none" xmlns="http://www.w3.org/2000/svg">
<circle cx="420.5" cy="341.5" r="170.5" fill="#FAF7EE"/>
<path d="M510.659 161.174L487.915 121.78C485.154 116.998 479.037 115.357 474.255 118.12C469.472 120.882 467.833 126.997 470.595 131.78L488.339 162.513L462.975 177.158L382.81 38.3055L408.173 23.6616L425.596 53.8394C428.357 58.6204 434.472 60.2614 439.256 57.4994C444.039 54.7374 445.678 48.6225 442.916 43.8395L420.493 5.00173C417.732 0.218754 411.615 -1.42024 406.833 1.34174L364.15 25.9856C359.367 28.7476 357.728 34.8626 360.49 39.6455L362.973 43.9465C358.488 45.9465 353.36 46.2875 348.495 44.7305L338.168 41.4225C310.01 32.4026 279.039 36.7075 254.412 52.4524C230.292 38.6005 201.669 35.5116 174.955 44.0675L166.808 46.6765C160.574 48.6755 153.944 48.0885 148.269 45.2625L151.512 39.6445C154.274 34.8616 152.635 28.7466 147.852 25.9846L105.168 1.34074C100.386 -1.41924 94.2702 0.218754 91.5082 5.00073L1.34174 161.174C-1.42024 165.957 0.218751 172.072 5.00172 174.834L47.6865 199.479C49.2195 200.365 50.9465 200.819 52.6864 200.819C53.5524 200.819 54.4224 200.707 55.2744 200.478C57.8364 199.791 60.0204 198.116 61.3464 195.819L65.5124 188.603L116.881 225.809C118.226 231.074 120.948 236.057 125.062 240.171C130.888 245.996 138.452 249.038 146.099 249.311C146.376 257.266 149.597 264.706 155.253 270.362C160.907 276.016 168.341 279.236 176.291 279.516C176.571 287.466 179.791 294.9 185.446 300.554C191.274 306.382 198.846 309.425 206.497 309.695C206.767 317.346 209.809 324.917 215.636 330.746C221.747 336.857 229.775 339.914 237.803 339.914C245.831 339.914 253.859 336.858 259.97 330.747L263.244 327.473L268.549 332.778C274.47 338.699 282.342 341.96 290.716 341.96C299.09 341.96 306.962 338.699 312.883 332.778C318.54 327.121 321.761 319.682 322.038 311.727C329.685 311.454 337.251 308.412 343.076 302.587C348.733 296.929 351.954 289.49 352.23 281.535C359.877 281.262 367.442 278.219 373.267 272.395C378.921 266.742 382.142 259.308 382.422 251.358C390.371 251.078 397.805 247.857 403.458 242.203C409.379 236.282 412.64 228.41 412.64 220.036C412.64 219.536 412.627 219.039 412.604 218.544L450.498 195.554L450.653 195.822C451.979 198.119 454.163 199.795 456.725 200.481C457.577 200.71 458.447 200.822 459.313 200.822C461.054 200.822 462.78 200.368 464.313 199.482L506.998 174.837C511.781 172.072 513.421 165.957 510.659 161.174ZM23.6616 162.514L103.828 23.6626L129.192 38.3065L49.0255 177.158L23.6616 162.514ZM139.204 226.028C134.779 221.602 134.779 214.403 139.204 209.978L164.564 184.618C168.989 180.192 176.189 180.192 180.614 184.618C182.758 186.762 183.938 189.612 183.938 192.643C183.938 195.674 182.758 198.524 180.614 200.667L155.255 226.026C150.829 230.451 143.629 230.451 139.204 226.028ZM169.396 256.219C167.252 254.075 166.072 251.226 166.072 248.195C166.072 245.164 167.252 242.314 169.396 240.171L194.755 214.812C196.968 212.599 199.874 211.494 202.78 211.494C205.686 211.494 208.592 212.6 210.805 214.812C212.949 216.956 214.129 219.804 214.129 222.835C214.129 225.866 212.948 228.717 210.805 230.86L185.445 256.219C183.301 258.364 180.451 259.543 177.42 259.543C174.39 259.543 171.54 258.363 169.396 256.219ZM196.264 278.387C196.264 275.356 197.445 272.505 199.588 270.362L224.947 245.003C227.091 242.858 229.941 241.679 232.972 241.679C236.003 241.679 238.853 242.859 240.997 245.003C243.141 247.147 244.321 249.996 244.321 253.027C244.321 256.058 243.141 258.908 240.997 261.051L215.637 286.411C211.213 290.837 204.013 290.837 199.588 286.411C197.444 284.268 196.264 281.418 196.264 278.387ZM229.778 316.604C225.354 312.179 225.354 304.979 229.778 300.554L255.138 275.194C259.563 270.768 266.763 270.769 271.188 275.194C273.332 277.338 274.512 280.188 274.512 283.219C274.512 286.25 273.332 289.1 271.188 291.243L245.829 316.603C241.403 321.029 234.204 321.029 229.778 316.604ZM298.742 318.635C296.598 320.779 293.749 321.958 290.718 321.958C287.687 321.958 284.837 320.778 282.693 318.634L277.388 313.329L285.331 305.386C288.151 302.566 290.36 299.3 291.908 295.751L298.743 302.585C300.887 304.729 302.067 307.578 302.067 310.609C302.067 313.64 300.886 316.49 298.742 318.635ZM389.318 228.059C387.174 230.203 384.326 231.383 381.295 231.383C378.264 231.383 375.414 230.202 373.27 228.058L310.13 164.919C306.226 161.015 299.893 161.015 295.988 164.919C292.083 168.824 292.083 175.156 295.988 179.062L359.128 242.201C361.272 244.345 362.452 247.195 362.452 250.226C362.452 253.257 361.272 256.107 359.128 258.25C354.703 262.675 347.503 262.674 343.078 258.25L279.937 195.111C276.032 191.207 269.7 191.207 265.795 195.111C261.89 199.016 261.89 205.348 265.795 209.254L328.935 272.393C331.079 274.537 332.259 277.386 332.259 280.417C332.259 283.448 331.078 286.299 328.935 288.442C324.509 292.867 317.309 292.865 312.885 288.442C312.885 288.442 284.509 260.156 284.021 259.819C278.395 254.798 271.38 252.164 264.294 251.91C264.017 243.955 260.796 236.515 255.14 230.859C249.486 225.205 242.052 221.985 234.102 221.705C233.822 213.756 230.602 206.322 224.948 200.668C219.123 194.843 211.559 191.801 203.912 191.528C203.635 183.573 200.414 176.133 194.757 170.476C182.534 158.253 162.646 158.253 150.423 170.476L125.063 195.836C122.857 198.042 121.056 200.5 119.646 203.115L75.5673 171.188L138.256 62.6074C148.759 68.2094 161.22 69.4673 172.909 65.7234L181.056 63.1144C199.708 57.1394 219.524 58.2804 237.081 66.0584L207.245 91.7222C199.557 98.3352 194.93 107.94 194.549 118.074C194.168 128.208 198.063 138.133 205.234 145.303C216.97 157.041 235.182 159.397 249.52 151.029L299.296 121.984L389.32 212.009C391.464 214.153 392.644 217.002 392.644 220.032C392.644 223.063 391.462 225.914 389.318 228.059ZM405.129 199.684C404.596 199.062 307.984 102.391 307.984 102.391C304.772 99.1782 299.797 98.5342 295.873 100.826L239.438 133.757C232.942 137.545 224.69 136.482 219.373 131.162C216.076 127.865 214.358 123.484 214.533 118.825C214.708 114.166 216.75 109.926 220.284 106.886L256.395 75.8253C277.083 58.0324 306.08 52.1484 332.066 60.4714L342.392 63.7794C352.732 67.0914 363.671 66.0744 372.997 61.3134L440.496 178.227L405.129 199.684Z" fill="#112D2C"/>
<path d="M456.758 97.8083C462.281 97.8083 466.758 93.3311 466.758 87.8083C466.758 82.2854 462.281 77.8083 456.758 77.8083C451.235 77.8083 446.758 82.2854 446.758 87.8083C446.758 93.3311 451.235 97.8083 456.758 97.8083Z" fill="#112D2C"/>
</svg>
